<svg id="visual" viewBox="0 0 1500 1000" width="1500" height="1000" xmlns="http://www.w3.org/2000/svg" xmlns:xlink="http://www.w3.org/1999/xlink" version="1.1"><rect x="0" y="0" width="1500" height="1000" fill="#001220"></rect><defs><linearGradient id="grad1_0" x1="33.3%" y1="0%" x2="100%" y2="100%"><stop offset="20%" stop-color="#fbae3c" stop-opacity="1"></stop><stop offset="80%" stop-color="#fbae3c" stop-opacity="1"></stop></linearGradient></defs><defs><linearGradient id="grad1_1" x1="33.3%" y1="0%" x2="100%" y2="100%"><stop offset="20%" stop-color="#fbae3c" stop-opacity="1"></stop><stop offset="80%" stop-color="#f48350" stop-opacity="1"></stop></linearGradient></defs><defs><linearGradient id="grad1_2" x1="33.3%" y1="0%" x2="100%" y2="100%"><stop offset="20%" stop-color="#d96162" stop-opacity="1"></stop><stop offset="80%" stop-color="#f48350" stop-opacity="1"></stop></linearGradient></defs><defs><linearGradient id="grad1_3" x1="33.3%" y1="0%" x2="100%" y2="100%"><stop offset="20%" stop-color="#d96162" stop-opacity="1"></stop><stop offset="80%" stop-color="#af4b6d" stop-opacity="1"></stop></linearGradient></defs><defs><linearGradient id="grad1_4" x1="33.3%" y1="0%" x2="100%" y2="100%"><stop offset="20%" stop-color="#7c3e6b" stop-opacity="1"></stop><stop offset="80%" stop-color="#af4b6d" stop-opacity="1"></stop></linearGradient></defs><defs><linearGradient id="grad1_5" x1="33.3%" y1="0%" x2="100%" y2="100%"><stop offset="20%" stop-color="#7c3e6b" stop-opacity="1"></stop><stop offset="80%" stop-color="#49335c" stop-opacity="1"></stop></linearGradient></defs><defs><linearGradient id="grad1_6" x1="33.3%" y1="0%" x2="100%" y2="100%"><stop offset="20%" stop-color="#1d2540" stop-opacity="1"></stop><stop offset="80%" stop-color="#49335c" stop-opacity="1"></stop></linearGradient></defs><defs><linearGradient id="grad1_7" x1="33.3%" y1="0%" x2="100%" y2="100%"><stop offset="20%" stop-color="#1d2540" stop-opacity="1"></stop><stop offset="80%" stop-color="#001220" stop-opacity="1"></stop></linearGradient></defs><defs><linearGradient id="grad2_0" x1="0%" y1="0%" x2="66.7%" y2="100%"><stop offset="20%" stop-color="#fbae3c" stop-opacity="1"></stop><stop offset="80%" stop-color="#fbae3c" stop-opacity="1"></stop></linearGradient></defs><defs><linearGradient id="grad2_1" x1="0%" y1="0%" x2="66.7%" y2="100%"><stop offset="20%" stop-color="#f48350" stop-opacity="1"></stop><stop offset="80%" stop-color="#fbae3c" stop-opacity="1"></stop></linearGradient></defs><defs><linearGradient id="grad2_2" x1="0%" y1="0%" x2="66.7%" y2="100%"><stop offset="20%" stop-color="#f48350" stop-opacity="1"></stop><stop offset="80%" stop-color="#d96162" stop-opacity="1"></stop></linearGradient></defs><defs><linearGradient id="grad2_3" x1="0%" y1="0%" x2="66.7%" y2="100%"><stop offset="20%" stop-color="#af4b6d" stop-opacity="1"></stop><stop offset="80%" stop-color="#d96162" stop-opacity="1"></stop></linearGradient></defs><defs><linearGradient id="grad2_4" x1="0%" y1="0%" x2="66.7%" y2="100%"><stop offset="20%" stop-color="#af4b6d" stop-opacity="1"></stop><stop offset="80%" stop-color="#7c3e6b" stop-opacity="1"></stop></linearGradient></defs><defs><linearGradient id="grad2_5" x1="0%" y1="0%" x2="66.7%" y2="100%"><stop offset="20%" stop-color="#49335c" stop-opacity="1"></stop><stop offset="80%" stop-color="#7c3e6b" stop-opacity="1"></stop></linearGradient></defs><defs><linearGradient id="grad2_6" x1="0%" y1="0%" x2="66.7%" y2="100%"><stop offset="20%" stop-color="#49335c" stop-opacity="1"></stop><stop offset="80%" stop-color="#1d2540" stop-opacity="1"></stop></linearGradient></defs><defs><linearGradient id="grad2_7" x1="0%" y1="0%" x2="66.7%" y2="100%"><stop offset="20%" stop-color="#001220" stop-opacity="1"></stop><stop offset="80%" stop-color="#1d2540" stop-opacity="1"></stop></linearGradient></defs><g transform="translate(1500, 0)"><path d="M0 540.8C-70.1 532.6 -140.1 524.4 -207 499.7C-273.8 475 -337.4 433.8 -379.7 379.7C-422.1 325.6 -443.2 258.7 -466.6 193.3C-489.9 127.8 -515.4 63.9 -540.8 0L0 0Z" fill="#0c1c30"></path><path d="M0 473.2C-61.3 466 -122.6 458.8 -181.1 437.2C-239.6 415.6 -295.2 379.6 -332.3 332.3C-369.3 284.9 -387.8 226.4 -408.2 169.1C-428.6 111.8 -450.9 55.9 -473.2 0L0 0Z" fill="#312c4f"></path><path d="M0 405.6C-52.6 399.5 -105.1 393.3 -155.2 374.7C-205.3 356.2 -253 325.3 -284.8 284.8C-316.6 244.2 -332.4 194 -349.9 144.9C-367.4 95.9 -386.5 47.9 -405.6 0L0 0Z" fill="#623965"></path><path d="M0 338C-43.8 332.9 -87.6 327.7 -129.4 312.3C-171.1 296.9 -210.8 271.1 -237.3 237.3C-263.8 203.5 -277 161.7 -291.6 120.8C-306.2 79.9 -322.1 39.9 -338 0L0 0Z" fill="#96446e"></path><path d="M0 270.4C-35 266.3 -70.1 262.2 -103.5 249.8C-136.9 237.5 -168.7 216.9 -189.9 189.9C-211 162.8 -221.6 129.3 -233.3 96.6C-244.9 63.9 -257.7 32 -270.4 0L0 0Z" fill="#c55469"></path><path d="M0 202.8C-26.3 199.7 -52.6 196.6 -77.6 187.4C-102.7 178.1 -126.5 162.7 -142.4 142.4C-158.3 122.1 -166.2 97 -175 72.5C-183.7 47.9 -193.3 24 -202.8 0L0 0Z" fill="#e9705a"></path><path d="M0 135.2C-17.5 133.2 -35 131.1 -51.7 124.9C-68.4 118.7 -84.3 108.4 -94.9 94.9C-105.5 81.4 -110.8 64.7 -116.6 48.3C-122.5 32 -128.8 16 -135.2 0L0 0Z" fill="#fa9845"></path><path d="M0 67.6C-8.8 66.6 -17.5 65.5 -25.9 62.5C-34.2 59.4 -42.2 54.2 -47.5 47.5C-52.8 40.7 -55.4 32.3 -58.3 24.2C-61.2 16 -64.4 8 -67.6 0L0 0Z" fill="#fbae3c"></path></g><g transform="translate(0, 1000)"><path d="M0 -540.8C77 -540.2 154.1 -539.6 207 -499.7C259.9 -459.7 288.6 -380.5 323.1 -323.1C357.7 -265.8 397.9 -230.4 435.1 -180.2C472.4 -130 506.6 -65 540.8 0L0 0Z" fill="#0c1c30"></path><path d="M0 -473.2C67.4 -472.7 134.8 -472.2 181.1 -437.2C227.4 -402.3 252.6 -332.9 282.8 -282.8C313 -232.6 348.2 -201.6 380.8 -157.7C413.3 -113.8 443.3 -56.9 473.2 0L0 0Z" fill="#312c4f"></path><path d="M0 -405.6C57.8 -405.2 115.5 -404.7 155.2 -374.7C194.9 -344.8 216.5 -285.4 242.4 -242.4C268.2 -199.4 298.4 -172.8 326.4 -135.2C354.3 -97.5 380 -48.8 405.6 0L0 0Z" fill="#623965"></path><path d="M0 -338C48.1 -337.6 96.3 -337.3 129.4 -312.3C162.4 -287.3 180.4 -237.8 202 -202C223.5 -166.1 248.7 -144 272 -112.7C295.2 -81.3 316.6 -40.6 338 0L0 0Z" fill="#96446e"></path><path d="M0 -270.4C38.5 -270.1 77 -269.8 103.5 -249.8C129.9 -229.9 144.3 -190.2 161.6 -161.6C178.8 -132.9 199 -115.2 217.6 -90.1C236.2 -65 253.3 -32.5 270.4 0L0 0Z" fill="#c55469"></path><path d="M0 -202.8C28.9 -202.6 57.8 -202.4 77.6 -187.4C97.5 -172.4 108.2 -142.7 121.2 -121.2C134.1 -99.7 149.2 -86.4 163.2 -67.6C177.1 -48.8 190 -24.4 202.8 0L0 0Z" fill="#e9705a"></path><path d="M0 -135.2C19.3 -135.1 38.5 -134.9 51.7 -124.9C65 -114.9 72.2 -95.1 80.8 -80.8C89.4 -66.5 99.5 -57.6 108.8 -45.1C118.1 -32.5 126.7 -16.3 135.2 0L0 0Z" fill="#fa9845"></path><path d="M0 -67.6C9.6 -67.5 19.3 -67.5 25.9 -62.5C32.5 -57.5 36.1 -47.6 40.4 -40.4C44.7 -33.2 49.7 -28.8 54.4 -22.5C59 -16.3 63.3 -8.1 67.6 0L0 0Z" fill="#fbae3c"></path></g></svg>