<svg id="visual" viewBox="0 0 900 600" width="900" height="600" xmlns="http://www.w3.org/2000/svg" xmlns:xlink="http://www.w3.org/1999/xlink" version="1.1"><rect x="0" y="0" width="900" height="600" fill="#001220"></rect><defs><linearGradient id="grad1_0" x1="33.3%" y1="0%" x2="100%" y2="100%"><stop offset="20%" stop-color="#001220" stop-opacity="1"></stop><stop offset="80%" stop-color="#001220" stop-opacity="1"></stop></linearGradient></defs><defs><linearGradient id="grad2_0" x1="0%" y1="0%" x2="66.7%" y2="100%"><stop offset="20%" stop-color="#001220" stop-opacity="1"></stop><stop offset="80%" stop-color="#001220" stop-opacity="1"></stop></linearGradient></defs><g transform="translate(900, 0)"><path d="M0 243.4C-31.6 231.5 -63.1 219.5 -82.7 199.6C-102.2 179.6 -109.7 151.5 -135.1 135.1C-160.5 118.6 -203.8 113.7 -224.8 93.1C-245.9 72.6 -244.6 36.3 -243.4 0L0 0Z" fill="#FBAE3C"></path></g><g transform="translate(0, 600)"><path d="M0 -243.4C30.7 -239.3 61.3 -235.2 93.1 -224.8C124.9 -214.5 157.9 -197.9 171.1 -171.1C184.4 -144.4 177.9 -107.5 186.6 -77.3C195.4 -47.1 219.4 -23.5 243.4 0L0 0Z" fill="#FBAE3C"></path></g></svg>